<?xml version="1.0" encoding="utf-8"?>
<!-- Generator: Adobe Illustrator 28.1.0, SVG Export Plug-In . SVG Version: 6.00 Build 0)  -->
<svg version="1.1" id="Layer_1" xmlns="http://www.w3.org/2000/svg" xmlns:xlink="http://www.w3.org/1999/xlink" x="0px" y="0px"
	 viewBox="0 0 303.7 55.5" style="enable-background:new 0 0 303.7 55.5;" xml:space="preserve">
<style type="text/css">
	.st0{fill:url(#SVGID_1_);}
	.st1{fill:url(#SVGID_00000048467591774228168490000012479633171174438029_);}
	.st2{fill:url(#SVGID_00000023986575316463825370000013672524599458118845_);}
	.st3{fill:url(#SVGID_00000107583567285284318500000001292434560235742654_);}
	.st4{fill:url(#SVGID_00000156548718447415215080000003509276966863069592_);}
	.st5{fill:url(#SVGID_00000158722435865298072770000010172181102237178513_);}
	.st6{fill:url(#SVGID_00000032620528280214307040000004257356049141263756_);}
	.st7{fill:#00957F;}
	.st8{font-family:'LeagueSpartan-Bold';}
	.st9{font-size:18.4px;}
	.st10{letter-spacing:1;}
	.st11{fill:#E25454;}
</style>
<g>
	
		<linearGradient id="SVGID_1_" gradientUnits="userSpaceOnUse" x1="13.885" y1="10.09" x2="13.885" y2="24.65" gradientTransform="matrix(1 0 0 -1 0 58)">
		<stop  offset="0" style="stop-color:#F0522B"/>
		<stop  offset="1" style="stop-color:#F05269"/>
	</linearGradient>
	<polygon class="st0" points="11.4,32.4 10.2,33.5 10.2,43.9 17.5,43.9 17.5,38.5 	"/>
	
		<linearGradient id="SVGID_00000058574355928266424720000015381159073627700651_" gradientUnits="userSpaceOnUse" x1="24.745" y1="6.48" x2="24.745" y2="23.83" gradientTransform="matrix(1 0 0 -1 0 58)">
		<stop  offset="0" style="stop-color:#F0522B"/>
		<stop  offset="1" style="stop-color:#F05269"/>
	</linearGradient>
	<polygon style="fill:url(#SVGID_00000058574355928266424720000015381159073627700651_);" points="21.1,40.3 21.1,46.7 28.4,46.7 
		28.4,33 	"/>
	
		<linearGradient id="SVGID_00000088817134539169126090000000348585410388851376_" gradientUnits="userSpaceOnUse" x1="35.605" y1="7.31" x2="35.605" y2="31.17" gradientTransform="matrix(1 0 0 -1 0 58)">
		<stop  offset="0" style="stop-color:#F0522B"/>
		<stop  offset="1" style="stop-color:#F05269"/>
	</linearGradient>
	<polygon style="fill:url(#SVGID_00000088817134539169126090000000348585410388851376_);" points="36.2,25.3 32,29.5 32,44.1 
		39.2,44.1 39.2,28.4 	"/>
	
		<linearGradient id="SVGID_00000072998789165060377960000009026258449763372686_" gradientUnits="userSpaceOnUse" x1="-8.54" y1="31.88" x2="27.37" y2="31.88" gradientTransform="matrix(1 0 0 -1 0 58)">
		<stop  offset="0" style="stop-color:#FFFFFF"/>
		<stop  offset="0.1" style="stop-color:#F5F6F7"/>
		<stop  offset="0.26" style="stop-color:#DADEE1"/>
		<stop  offset="0.46" style="stop-color:#AFB8BE"/>
		<stop  offset="0.71" style="stop-color:#74838E"/>
		<stop  offset="0.88" style="stop-color:#475B69"/>
	</linearGradient>
	<polygon style="fill:url(#SVGID_00000072998789165060377960000009026258449763372686_);" points="5.2,33.9 2.2,31 11.4,21.9 
		20.2,30.7 35.2,15.7 38.1,18.6 20.2,36.5 11.4,27.7 	"/>
	
		<linearGradient id="SVGID_00000119091539968251869830000012734333682616921739_" gradientUnits="userSpaceOnUse" x1="27.7333" y1="58.001" x2="27.7333" y2="2.5525" gradientTransform="matrix(1 0 0 -1 0 58)">
		<stop  offset="0" style="stop-color:#00AE8E"/>
		<stop  offset="1" style="stop-color:#4C6168"/>
		<stop  offset="1" style="stop-color:#2E383F"/>
	</linearGradient>
	<path style="fill:url(#SVGID_00000119091539968251869830000012734333682616921739_);" d="M45.5,37.6c2.4-3.9,3.8-8.5,3.7-13.4
		C49,10.9,38.1,0.1,24.8,0C11.1-0.1-0.1,11.1,0,24.8C0.1,38.1,11,49,24.3,49.2c4.9,0.1,9.5-1.3,13.4-3.7l8.4,8.4
		c2.2,2.2,5.7,2.2,7.9,0l0,0c2.2-2.2,2.2-5.7,0-7.9C53.8,46,45.5,37.6,45.5,37.6z M25,44.5c-11.3,0.2-20.5-9-20.3-20.3
		C4.9,13.6,13.6,4.9,24.2,4.7c11.3-0.2,20.5,9,20.3,20.3C44.3,35.6,35.6,44.3,25,44.5z"/>
	
		<linearGradient id="SVGID_00000093134783081429127970000005721641828034373511_" gradientUnits="userSpaceOnUse" x1="43.73" y1="40.645" x2="29.2" y2="40.645" gradientTransform="matrix(1 0 0 -1 0 58)">
		<stop  offset="0" style="stop-color:#475B69"/>
		<stop  offset="0.12" style="stop-color:#4C5F6D"/>
		<stop  offset="0.27" style="stop-color:#5C6D79"/>
		<stop  offset="0.44" style="stop-color:#76848D"/>
		<stop  offset="0.63" style="stop-color:#9BA3AA"/>
		<stop  offset="0.82" style="stop-color:#CACBCE"/>
		<stop  offset="0.83" style="stop-color:#CECFD1"/>
	</linearGradient>
	<polygon style="fill:url(#SVGID_00000093134783081429127970000005721641828034373511_);" points="29.2,13.6 40.2,24.6 43.7,10.1 	
		"/>
	
		<linearGradient id="SVGID_00000035494101649083240190000007665587834784316835_" gradientUnits="userSpaceOnUse" x1="47.1644" y1="24.6977" x2="40.5544" y2="12.3077" gradientTransform="matrix(1 0 0 -1 0 58)">
		<stop  offset="0" style="stop-color:#008F77"/>
		<stop  offset="1" style="stop-color:#005958"/>
	</linearGradient>
	<path style="fill:url(#SVGID_00000035494101649083240190000007665587834784316835_);" d="M45.5,37.7c-2,3.1-4.6,5.8-7.8,7.8
		c0,0,0,0,0,0c1.1,1.1,2.2,2.2,3.3,3.3c2.7-2.8,4.7-6.2,5.8-9.9L45.5,37.7C45.5,37.6,45.5,37.6,45.5,37.7L45.5,37.7z"/>
</g>
<g>
	<text transform="matrix(1 0 0 1 61.26 27.77)" class="st7 st8 st9 st10">SMA</text>
	<text transform="matrix(1 0 0 1 110.98 27.77)" class="st7 st8 st9 st10">R</text>
	<text transform="matrix(1 0 0 1 125.25 27.77)" class="st7 st8 st9 st10">T</text>
	<text transform="matrix(1 0 0 1 138.06 27.77)" class="st7 st8 st9 st10"> </text>
	<text transform="matrix(1 0 0 1 144.56 27.77)" class="st7 st8 st9 st10">S</text>
	<text transform="matrix(1 0 0 1 158.76 27.77)" class="st7 st8 st9">A</text>
	<text transform="matrix(1 0 0 1 173.46 27.77)" class="st7 st8 st9 st10">VIN</text>
	<text transform="matrix(1 0 0 1 214.27 27.77)" class="st7 st8 st9 st10">G</text>
	<text transform="matrix(1 0 0 1 231 27.77)" class="st7 st8 st9 st10">S</text>
	<g>
		<path class="st11" d="M63.5,39.7c0.3,0.2,0.9,0.4,1.4,0.4c0.8,0,1.3-0.4,1.3-1s-0.3-0.9-1.1-1.2c-1-0.3-1.6-0.9-1.6-1.7
			c0-0.9,0.8-1.6,1.9-1.6c0.6,0,1.1,0.1,1.3,0.3l-0.2,0.6c-0.2-0.1-0.6-0.3-1.1-0.3c-0.8,0-1.1,0.5-1.1,0.9c0,0.6,0.4,0.8,1.2,1.2
			c1,0.4,1.5,0.9,1.5,1.8c0,0.9-0.7,1.7-2.1,1.7c-0.6,0-1.2-0.2-1.5-0.4L63.5,39.7z"/>
		<path class="st11" d="M69,38.7l-0.6,1.9h-0.8l2-6h0.9l2,6h-0.8l-0.6-1.9H69z M70.9,38.1l-0.6-1.7c-0.1-0.4-0.2-0.7-0.3-1.1l0,0
			c-0.1,0.4-0.2,0.7-0.3,1.1l-0.6,1.7H70.9z"/>
		<path class="st11" d="M74.3,40.6l-2-6h0.9l0.9,2.9c0.3,0.8,0.5,1.5,0.6,2.2l0,0c0.2-0.7,0.4-1.4,0.7-2.2l1-3h0.8l-2.1,6L74.3,40.6
			L74.3,40.6z"/>
		<path class="st11" d="M81,37.8h-2.3V40h2.6v0.6h-3.4v-6h3.3v0.6h-2.5v2H81V37.8z"/>
		<path class="st11" d="M84.8,40.6l-1.5-6h0.8l0.7,3c0.2,0.7,0.3,1.5,0.4,2.1l0,0c0.1-0.6,0.3-1.3,0.5-2.1l0.8-3h0.8l0.7,3
			c0.2,0.7,0.3,1.4,0.4,2.1l0,0c0.1-0.7,0.3-1.3,0.5-2.1l0.8-3h0.8l-1.7,6H88l-0.8-3.1c-0.2-0.8-0.3-1.3-0.4-2l0,0
			c-0.1,0.6-0.2,1.2-0.5,2l-0.9,3.1H84.8z"/>
		<path class="st11" d="M92.1,34.6v6h-0.8v-6H92.1z"/>
		<path class="st11" d="M93.4,39.7c0.3,0.2,0.9,0.4,1.4,0.4c0.8,0,1.3-0.4,1.3-1s-0.3-0.9-1.1-1.2c-1-0.3-1.6-0.9-1.6-1.7
			c0-0.9,0.8-1.6,1.9-1.6c0.6,0,1.1,0.1,1.3,0.3l-0.2,0.6c-0.2-0.1-0.6-0.3-1.2-0.3c-0.8,0-1.1,0.5-1.1,0.9c0,0.6,0.4,0.8,1.2,1.2
			c1,0.4,1.5,0.9,1.5,1.8c0,0.9-0.7,1.7-2.1,1.7c-0.6,0-1.2-0.2-1.5-0.4L93.4,39.7z"/>
		<path class="st11" d="M101,37.8h-2.3V40h2.6v0.6h-3.4v-6h3.2v0.6h-2.5v2h2.3v0.6H101z"/>
		<path class="st11" d="M102.2,34.6h0.8v5.3h2.6v0.6h-3.4V34.6z"/>
		<path class="st11" d="M107,40.6v-2.5l-1.9-3.4h0.9l0.8,1.7c0.2,0.5,0.4,0.8,0.6,1.2l0,0c0.2-0.4,0.4-0.8,0.6-1.2l0.9-1.7h0.9
			l-2,3.4v2.5H107z"/>
		<path class="st11" d="M109.1,41.7c0.2-0.5,0.4-1.5,0.5-2.1l0.9-0.1c-0.2,0.8-0.6,1.7-0.8,2.2L109.1,41.7z"/>
		<path class="st11" d="M114.3,38.7l-0.6,1.9h-0.8l2-6h0.9l2,6H117l-0.6-1.9H114.3z M116.3,38.1l-0.6-1.7c-0.1-0.4-0.2-0.7-0.3-1.1
			l0,0c-0.1,0.4-0.2,0.7-0.3,1.1l-0.6,1.7H116.3z"/>
		<path class="st11" d="M122.8,40.4c-0.3,0.1-0.9,0.3-1.6,0.3c-1.7,0-3-1.1-3-3s1.3-3.1,3.1-3.1c0.7,0,1.2,0.2,1.4,0.3l-0.2,0.6
			c-0.3-0.1-0.7-0.2-1.2-0.2c-1.4,0-2.3,0.9-2.3,2.5c0,1.5,0.8,2.4,2.3,2.4c0.5,0,0.9-0.1,1.3-0.2L122.8,40.4z"/>
		<path class="st11" d="M124.6,34.6v2.5h2.9v-2.5h0.8v6h-0.8v-2.8h-2.9v2.8h-0.8v-6H124.6z"/>
		<path class="st11" d="M130.4,34.6v6h-0.8v-6H130.4z"/>
		<path class="st11" d="M134.8,37.8h-2.3V40h2.6v0.6h-3.4v-6h3.2v0.6h-2.5v2h2.3L134.8,37.8L134.8,37.8z"/>
		<path class="st11" d="M137.5,40.6l-2-6h0.8l0.9,2.9c0.3,0.8,0.5,1.5,0.6,2.2l0,0c0.2-0.7,0.4-1.4,0.7-2.2l1-3h0.8l-2.1,6
			L137.5,40.6L137.5,40.6z"/>
		<path class="st11" d="M144.2,37.8h-2.3V40h2.6v0.6h-3.4v-6h3.2v0.6h-2.5v2h2.3L144.2,37.8L144.2,37.8z"/>
		<path class="st11" d="M148.3,40.6v-2.5l-1.9-3.4h0.9l0.8,1.7c0.2,0.5,0.4,0.8,0.6,1.2l0,0c0.2-0.4,0.4-0.8,0.6-1.2l0.9-1.7h0.9
			l-2,3.4v2.5H148.3z"/>
		<path class="st11" d="M156.5,37.6c0,2.1-1.3,3.2-2.8,3.2c-1.6,0-2.7-1.2-2.7-3c0-1.9,1.2-3.1,2.8-3.1
			C155.5,34.5,156.5,35.8,156.5,37.6z M151.9,37.7c0,1.3,0.7,2.4,1.9,2.4s1.9-1.1,1.9-2.5c0-1.2-0.6-2.4-1.9-2.4
			S151.9,36.3,151.9,37.7z"/>
		<path class="st11" d="M158.3,34.6v3.6c0,1.3,0.6,1.9,1.4,1.9c0.9,0,1.5-0.6,1.5-1.9v-3.5h0.8v3.5c0,1.8-1,2.6-2.3,2.6
			c-1.2,0-2.1-0.7-2.1-2.6v-3.5L158.3,34.6L158.3,34.6z"/>
		<path class="st11" d="M163.3,34.7c0.4-0.1,1-0.1,1.5-0.1c0.8,0,1.4,0.2,1.7,0.5s0.5,0.7,0.5,1.1c0,0.8-0.5,1.3-1.1,1.5l0,0
			c0.5,0.2,0.7,0.6,0.9,1.2c0.2,0.8,0.3,1.4,0.5,1.6h-0.8c-0.1-0.2-0.2-0.7-0.4-1.4c-0.2-0.8-0.5-1.1-1.2-1.2h-0.7v2.6h-0.8
			L163.3,34.7L163.3,34.7z M164.1,37.4h0.8c0.8,0,1.3-0.5,1.3-1.1c0-0.8-0.6-1.1-1.4-1.1c-0.4,0-0.6,0-0.8,0.1L164.1,37.4
			L164.1,37.4z"/>
		<path class="st11" d="M174.5,40.3c-0.3,0.1-1,0.3-1.8,0.3c-0.9,0-1.7-0.2-2.2-0.8c-0.5-0.5-0.8-1.3-0.8-2.2c0-1.8,1.2-3.1,3.2-3.1
			c0.7,0,1.2,0.2,1.5,0.3l-0.2,0.6c-0.3-0.1-0.7-0.3-1.3-0.3c-1.5,0-2.4,0.9-2.4,2.4s0.9,2.4,2.3,2.4c0.5,0,0.9-0.1,1-0.2v-1.8h-1.2
			v-0.6h2v3H174.5z"/>
		<path class="st11" d="M180.8,37.6c0,2.1-1.3,3.2-2.8,3.2c-1.6,0-2.7-1.2-2.7-3c0-1.9,1.2-3.1,2.8-3.1
			C179.7,34.5,180.8,35.8,180.8,37.6z M176.1,37.7c0,1.3,0.7,2.4,1.9,2.4s1.9-1.1,1.9-2.5c0-1.2-0.6-2.4-1.9-2.4
			C176.8,35.2,176.1,36.3,176.1,37.7z"/>
		<path class="st11" d="M182.6,38.7l-0.6,1.9h-0.8l2-6h0.9l2,6h-0.8l-0.6-1.9H182.6z M184.6,38.1l-0.6-1.7c-0.1-0.4-0.2-0.7-0.3-1.1
			l0,0c-0.1,0.4-0.2,0.7-0.3,1.1l-0.6,1.7H184.6z"/>
		<path class="st11" d="M187.1,34.6h0.8v5.3h2.6v0.6h-3.3v-5.9H187.1z"/>
		<path class="st11" d="M191.2,39.7c0.3,0.2,0.9,0.4,1.4,0.4c0.8,0,1.3-0.4,1.3-1s-0.3-0.9-1.1-1.2c-1-0.3-1.6-0.9-1.6-1.7
			c0-0.9,0.8-1.6,1.9-1.6c0.6,0,1.1,0.1,1.3,0.3l-0.2,0.6c-0.2-0.1-0.6-0.3-1.1-0.3c-0.8,0-1.1,0.5-1.1,0.9c0,0.6,0.4,0.8,1.2,1.2
			c1,0.4,1.5,0.9,1.5,1.8c0,0.9-0.7,1.7-2.1,1.7c-0.6,0-1.2-0.2-1.5-0.4L191.2,39.7z"/>
	</g>
</g>
</svg>
