<?xml version="1.0" encoding="UTF-8"?>
<svg id="Layer_1" data-name="Layer 1" xmlns="http://www.w3.org/2000/svg" xmlns:xlink="http://www.w3.org/1999/xlink" viewBox="0 0 303.74 55.45">
  <defs>
    <style>
      .cls-1 {
        fill: url(#linear-gradient);
      }

      .cls-1, .cls-2, .cls-3, .cls-4, .cls-5, .cls-6, .cls-7, .cls-8, .cls-9 {
        stroke-width: 0px;
      }

      .cls-2 {
        fill: url(#linear-gradient-4);
      }

      .cls-3 {
        fill: url(#linear-gradient-2);
      }

      .cls-4 {
        fill: url(#linear-gradient-3);
      }

      .cls-5 {
        fill: url(#linear-gradient-7);
      }

      .cls-6 {
        fill: url(#linear-gradient-5);
      }

      .cls-7 {
        fill: url(#linear-gradient-6);
      }

      .cls-8 {
        fill: #f15e22;
      }

      .cls-9 {
        fill: #00957f;
      }
    </style>
    <linearGradient id="linear-gradient" x1="13.88" y1="47.91" x2="13.88" y2="33.35" gradientUnits="userSpaceOnUse">
      <stop offset="0" stop-color="#f0522b"/>
      <stop offset="1" stop-color="#f05269"/>
    </linearGradient>
    <linearGradient id="linear-gradient-2" x1="24.75" y1="51.52" x2="24.75" y2="34.17" xlink:href="#linear-gradient"/>
    <linearGradient id="linear-gradient-3" x1="35.61" y1="50.69" x2="35.61" y2="26.83" xlink:href="#linear-gradient"/>
    <linearGradient id="linear-gradient-4" x1="-8.54" y1="26.12" x2="27.37" y2="26.12" gradientUnits="userSpaceOnUse">
      <stop offset="0" stop-color="#fff"/>
      <stop offset=".1" stop-color="#f5f6f7"/>
      <stop offset=".26" stop-color="#dadee1"/>
      <stop offset=".46" stop-color="#afb8be"/>
      <stop offset=".71" stop-color="#74838e"/>
      <stop offset=".88" stop-color="#475b69"/>
    </linearGradient>
    <linearGradient id="linear-gradient-5" x1="27.73" y1="0" x2="27.73" y2="55.45" gradientUnits="userSpaceOnUse">
      <stop offset="0" stop-color="#00ae8e"/>
      <stop offset="1" stop-color="#4c6168"/>
      <stop offset="1" stop-color="#2e383f"/>
    </linearGradient>
    <linearGradient id="linear-gradient-6" x1="43.73" y1="17.36" x2="29.2" y2="17.36" gradientUnits="userSpaceOnUse">
      <stop offset="0" stop-color="#475b69"/>
      <stop offset=".12" stop-color="#4c5f6d"/>
      <stop offset=".27" stop-color="#5c6d79"/>
      <stop offset=".44" stop-color="#76848d"/>
      <stop offset=".63" stop-color="#9ba3aa"/>
      <stop offset=".82" stop-color="#cacbce"/>
      <stop offset=".83" stop-color="#cecfd1"/>
    </linearGradient>
    <linearGradient id="linear-gradient-7" x1="47.16" y1="33.3" x2="40.55" y2="45.69" gradientUnits="userSpaceOnUse">
      <stop offset="0" stop-color="#008f77"/>
      <stop offset="1" stop-color="#005958"/>
    </linearGradient>
  </defs>
  <g>
    <polygon class="cls-1" points="11.37 32.4 10.24 33.53 10.24 43.89 17.53 43.89 17.53 38.55 11.37 32.4"/>
    <polygon class="cls-3" points="21.1 40.33 21.1 46.73 28.39 46.73 28.39 33.04 21.1 40.33"/>
    <polygon class="cls-4" points="36.16 25.27 31.96 29.47 31.96 44.1 39.25 44.1 39.25 28.36 36.16 25.27"/>
    <polygon class="cls-2" points="5.15 33.94 2.23 31.01 11.37 21.87 20.2 30.7 35.22 15.69 38.14 18.61 20.2 36.55 11.37 27.72 5.15 33.94"/>
    <path class="cls-6" d="M45.49,37.61c2.41-3.87,3.78-8.45,3.71-13.35C49.02,10.95,38.13.12,24.82,0,11.06-.12-.12,11.06,0,24.82c.12,13.31,10.96,24.2,24.27,24.38,4.91.07,9.5-1.31,13.36-3.73l8.35,8.35c2.17,2.17,5.69,2.17,7.86,0h0c2.17-2.17,2.17-5.69,0-7.86l-8.35-8.35ZM24.98,44.49c-11.28.21-20.47-8.98-20.26-20.26.2-10.63,8.87-19.31,19.51-19.51,11.28-.21,20.47,8.98,20.26,20.26-.2,10.63-8.87,19.31-19.51,19.51Z"/>
    <polygon class="cls-7" points="29.2 13.63 40.2 24.62 43.73 10.09 29.2 13.63"/>
    <path class="cls-5" d="M45.45,37.66c-1.98,3.13-4.64,5.8-7.77,7.78-.02.01-.03.03-.05.04,1.09,1.09,2.19,2.19,3.28,3.28,2.65-2.77,4.67-6.16,5.8-9.92l-1.22-1.22s-.03.03-.04.05Z"/>
  </g>
  <g>
    <g>
      <path class="cls-9" d="M72.67,13.74l-1.4,2.76s-1.51-1.05-3.07-1.05c-1.18,0-1.8.53-1.8,1.36s1.44,1.45,3.17,2.19c1.69.72,3.55,2.15,3.55,4.14,0,3.62-2.76,4.9-5.72,4.9-3.55,0-5.7-2.01-5.7-2.01l1.73-2.91s2.02,1.71,3.72,1.71c.75,0,2.19-.07,2.19-1.49,0-1.1-1.62-1.6-3.42-2.5-1.82-.9-2.89-2.32-2.89-3.9,0-2.83,2.5-4.64,4.95-4.64,2.76,0,4.71,1.44,4.71,1.44Z"/>
      <path class="cls-9" d="M88.4,18.77h-.09l-3.11,8.91h-2.06l-3.11-8.91h-.09l-.72,9h-3.46l1.36-15.18h3.68l3.37,8.76,3.37-8.76h3.68l1.36,15.18h-3.46l-.72-9Z"/>
      <path class="cls-9" d="M109.65,27.77h-3.72l-1.12-3.04h-5.78l-1.12,3.04h-3.72l6.13-15.18h3.2l6.13,15.18ZM101.94,17.28h-.04l-1.69,4.42h3.42l-1.69-4.42Z"/>
      <path class="cls-9" d="M117.51,12.58c2.82,0,4.95,1.53,4.95,4.51,0,2.28-1.25,3.81-3.11,4.4l5.23,6.28h-4.4l-4.64-6v6h-3.46v-15.18h5.43ZM115.95,19.32c1.31,0,2.87-.09,2.87-1.99s-1.56-1.99-2.87-1.99h-.41v3.97h.41Z"/>
      <path class="cls-9" d="M125.4,12.58h10.67v3.04h-3.61v12.15h-3.46v-12.15h-3.61v-3.04Z"/>
      <path class="cls-9" d="M155.97,13.74l-1.4,2.76s-1.51-1.05-3.07-1.05c-1.18,0-1.8.53-1.8,1.36s1.44,1.45,3.17,2.19c1.69.72,3.55,2.15,3.55,4.14,0,3.62-2.76,4.9-5.72,4.9-3.55,0-5.71-2.01-5.71-2.01l1.73-2.91s2.02,1.71,3.72,1.71c.75,0,2.19-.07,2.19-1.49,0-1.1-1.62-1.6-3.42-2.5-1.82-.9-2.89-2.32-2.89-3.9,0-2.83,2.5-4.64,4.95-4.64,2.76,0,4.71,1.44,4.71,1.44Z"/>
      <path class="cls-9" d="M173.7,27.77h-3.72l-1.12-3.04h-5.78l-1.12,3.04h-3.72l6.13-15.18h3.2l6.13,15.18ZM165.99,17.28h-.04l-1.69,4.42h3.42l-1.69-4.42Z"/>
      <path class="cls-9" d="M172.95,12.58h3.9l3.83,9.97,3.83-9.97h3.9l-6.37,15.18h-2.72l-6.37-15.18Z"/>
      <path class="cls-9" d="M194.29,27.77h-3.46v-15.18h3.46v15.18Z"/>
      <path class="cls-9" d="M201.8,27.77h-3.46v-15.18h3.46l6.04,9.42h.04v-9.42h3.46v15.18h-3.46l-6.04-9.42h-.04v9.42Z"/>
      <path class="cls-9" d="M229.11,22.56c-.83,3.85-4.03,5.48-7.01,5.48-4.09,0-7.4-3.52-7.4-7.86s3.13-7.88,7.4-7.88c2.67,0,4.53.99,5.85,2.59l-2.26,2.48c-.88-1.42-2.04-1.95-3.39-1.95-2.13,0-3.86,2.12-3.86,4.75s1.73,4.67,3.86,4.67c1.66,0,3.29-1.07,3.29-2.93h-3.5v-2.67h7.01v3.29Z"/>
      <path class="cls-9" d="M242.41,13.74l-1.4,2.76s-1.51-1.05-3.07-1.05c-1.18,0-1.8.53-1.8,1.36s1.44,1.45,3.17,2.19c1.69.72,3.55,2.15,3.55,4.14,0,3.62-2.76,4.9-5.72,4.9-3.55,0-5.71-2.01-5.71-2.01l1.73-2.91s2.02,1.71,3.72,1.71c.75,0,2.19-.07,2.19-1.49,0-1.1-1.62-1.6-3.42-2.5-1.82-.9-2.89-2.32-2.89-3.9,0-2.83,2.5-4.64,4.95-4.64,2.76,0,4.71,1.44,4.71,1.44Z"/>
    </g>
    <g>
      <path class="cls-8" d="M62.9,37.74c.31,0,.58.04.81.11.23.07.42.17.57.31s.26.29.34.48c.07.19.11.4.11.62s-.04.44-.12.62c-.08.19-.2.35-.35.49-.15.14-.34.24-.57.32-.23.08-.49.12-.78.12h-.79v1.83h-.66v-4.89h1.44ZM62.9,40.28c.19,0,.36-.03.5-.08s.27-.12.37-.21c.1-.09.17-.2.22-.32.05-.13.07-.26.07-.41,0-.31-.1-.55-.29-.73-.19-.17-.48-.26-.88-.26h-.79v2.01h.79Z"/>
      <path class="cls-8" d="M71.45,40.19c0,.37-.06.7-.17,1.01-.12.31-.28.57-.49.79-.21.22-.47.39-.76.51-.3.12-.63.18-.99.18s-.69-.06-.98-.18c-.3-.12-.55-.29-.76-.51-.21-.22-.38-.48-.49-.79-.12-.31-.17-.64-.17-1.01s.06-.7.17-1.01c.12-.31.28-.57.49-.79.21-.22.47-.39.76-.52s.62-.18.98-.18.69.06.99.18c.3.12.55.29.76.52.21.22.38.49.49.79.12.31.17.64.17,1.01ZM70.77,40.19c0-.3-.04-.57-.12-.81-.08-.24-.2-.44-.35-.61s-.33-.29-.55-.38-.45-.13-.72-.13-.5.04-.71.13c-.21.09-.4.22-.55.38s-.27.37-.35.61c-.08.24-.12.51-.12.81s.04.57.12.81c.08.24.2.44.35.6s.33.29.55.38c.21.09.45.13.71.13s.5-.04.72-.13c.21-.09.4-.21.55-.38s.27-.37.35-.6c.08-.24.12-.51.12-.81Z"/>
      <path class="cls-8" d="M75.65,42.11c.2,0,.38-.03.54-.1.16-.07.29-.16.4-.29.11-.12.19-.27.25-.44s.09-.36.09-.56v-2.97h.66v2.97c0,.28-.04.54-.13.79s-.22.45-.39.63c-.17.18-.37.31-.61.42-.24.1-.51.15-.81.15s-.57-.05-.81-.15c-.24-.1-.45-.24-.61-.42-.17-.18-.3-.39-.39-.63s-.13-.5-.13-.79v-2.97h.66v2.97c0,.21.03.39.09.56s.14.32.25.44.25.22.41.29.34.1.54.1Z"/>
      <path class="cls-8" d="M81.6,37.74c.31,0,.58.04.81.11.23.07.42.17.57.31s.26.29.34.48c.07.19.11.4.11.62s-.04.44-.12.62c-.08.19-.2.35-.35.49-.15.14-.34.24-.57.32-.23.08-.49.12-.78.12h-.79v1.83h-.66v-4.89h1.44ZM81.6,40.28c.19,0,.36-.03.5-.08s.27-.12.37-.21c.1-.09.17-.2.22-.32.05-.13.07-.26.07-.41,0-.31-.1-.55-.29-.73-.19-.17-.48-.26-.88-.26h-.79v2.01h.79Z"/>
      <path class="cls-8" d="M88.64,42.1v.54h-3.02v-4.89h3.02v.54h-2.35v1.63h1.91v.52h-1.91v1.67h2.36Z"/>
      <path class="cls-8" d="M97.48,41.63s.07.01.1.04l.26.28c-.2.23-.44.41-.73.54s-.63.19-1.04.19c-.35,0-.67-.06-.96-.18-.29-.12-.53-.29-.73-.51s-.36-.48-.47-.79c-.11-.31-.17-.65-.17-1.01s.06-.71.17-1.01c.12-.31.28-.57.49-.79.21-.22.46-.39.76-.51.29-.12.62-.18.97-.18s.66.06.92.17c.27.11.5.26.7.45l-.22.3s-.03.04-.05.06c-.02.01-.05.02-.09.02-.04,0-.09-.02-.15-.07-.06-.04-.14-.09-.23-.15s-.22-.1-.36-.15c-.14-.04-.32-.07-.53-.07-.25,0-.48.04-.69.13-.21.09-.39.21-.54.38s-.27.37-.35.61c-.08.24-.13.51-.13.81s.04.58.13.82c.09.24.21.44.36.61s.33.29.54.38.43.13.67.13c.15,0,.28,0,.39-.03.12-.02.23-.04.32-.08.1-.04.19-.08.28-.14s.17-.12.25-.2c.04-.03.08-.05.12-.05Z"/>
      <path class="cls-8" d="M104.4,40.19c0,.37-.06.7-.17,1.01-.12.31-.28.57-.49.79-.21.22-.47.39-.76.51-.3.12-.63.18-.99.18s-.69-.06-.98-.18c-.3-.12-.55-.29-.76-.51-.21-.22-.38-.48-.49-.79-.12-.31-.17-.64-.17-1.01s.06-.7.17-1.01c.12-.31.28-.57.49-.79.21-.22.47-.39.76-.52s.62-.18.98-.18.69.06.99.18c.3.12.55.29.76.52.21.22.38.49.49.79.12.31.17.64.17,1.01ZM103.72,40.19c0-.3-.04-.57-.12-.81-.08-.24-.2-.44-.35-.61s-.33-.29-.55-.38-.45-.13-.72-.13-.5.04-.71.13c-.21.09-.4.22-.55.38s-.27.37-.35.61c-.08.24-.12.51-.12.81s.04.57.12.81c.08.24.2.44.35.6s.33.29.55.38c.21.09.45.13.71.13s.5-.04.72-.13c.21-.09.4-.21.55-.38s.27-.37.35-.6c.08-.24.12-.51.12-.81Z"/>
      <path class="cls-8" d="M111.8,37.74v4.89h-.58v-3.6s0-.1,0-.15c0-.05,0-.11.01-.17l-1.68,3.06c-.05.1-.13.15-.24.15h-.1c-.11,0-.19-.05-.24-.15l-1.71-3.07c.01.12.02.23.02.33v3.6h-.58v-4.89h.49c.06,0,.1,0,.14.02.03.01.06.04.09.1l1.69,3.01c.03.05.05.11.08.17.03.06.05.12.07.18.02-.06.05-.12.07-.18.03-.06.05-.12.08-.17l1.66-3.01c.03-.05.06-.08.09-.1.03-.01.08-.02.14-.02h.49Z"/>
      <path class="cls-8" d="M120.04,38.51s-.04.06-.07.08c-.02.02-.05.03-.09.03-.04,0-.08-.02-.14-.06-.05-.04-.12-.08-.2-.13-.08-.05-.17-.09-.28-.13-.11-.04-.24-.06-.4-.06-.15,0-.28.02-.39.06-.11.04-.21.09-.28.16s-.13.15-.17.24c-.04.09-.06.19-.06.3,0,.14.03.25.1.34s.16.17.27.23c.11.06.24.12.38.17.14.05.28.1.43.15.15.05.29.11.43.17s.27.14.38.24.2.21.27.35c.07.14.1.31.1.51,0,.21-.04.42-.11.6-.07.19-.18.35-.32.49-.14.14-.31.25-.52.33-.2.08-.44.12-.7.12-.32,0-.61-.06-.87-.17-.26-.11-.48-.27-.67-.47l.19-.31s.04-.05.07-.06c.03-.02.05-.03.09-.03.03,0,.06.01.1.04.04.02.08.05.13.09.05.04.1.08.16.12s.13.08.21.12c.08.04.17.07.27.09.1.02.21.04.34.04.16,0,.3-.02.42-.07.12-.04.23-.1.31-.18.09-.08.15-.17.2-.28s.07-.23.07-.37c0-.15-.03-.27-.1-.36-.07-.09-.16-.17-.26-.24-.11-.06-.23-.12-.38-.16-.14-.04-.28-.09-.43-.14-.15-.05-.29-.1-.43-.16s-.27-.14-.38-.24c-.11-.1-.2-.22-.26-.37-.07-.15-.1-.33-.1-.54,0-.17.03-.34.1-.5.07-.16.17-.31.29-.43s.29-.23.47-.3.4-.11.65-.11c.27,0,.52.04.75.13.22.09.42.21.59.38l-.16.31Z"/>
      <path class="cls-8" d="M126.49,42.64h-.51c-.06,0-.11-.01-.14-.04-.04-.03-.06-.07-.08-.11l-.46-1.18h-2.2l-.46,1.18s-.04.08-.08.11c-.04.03-.09.05-.14.05h-.51l1.96-4.89h.67l1.96,4.89ZM125.11,40.82l-.77-1.99c-.02-.06-.05-.13-.07-.21-.03-.08-.05-.16-.07-.25-.05.18-.1.34-.15.46l-.77,1.99h1.83Z"/>
      <path class="cls-8" d="M130.07,37.74c.3,0,.56.03.78.09.22.06.4.14.54.25.14.11.24.24.31.4.07.16.1.34.1.54,0,.12-.02.24-.06.35-.04.11-.09.21-.17.31s-.17.18-.29.26-.25.14-.41.19c.36.07.63.2.81.38s.27.43.27.74c0,.21-.04.4-.11.57s-.19.32-.33.44-.33.22-.54.29-.46.1-.73.1h-1.73v-4.89h1.56ZM129.16,38.27v1.67h.87c.19,0,.35-.02.49-.06s.25-.1.34-.17.16-.16.2-.26c.04-.1.06-.22.06-.34,0-.29-.09-.5-.26-.63-.17-.13-.44-.2-.81-.2h-.9ZM130.22,42.11c.19,0,.35-.02.49-.06s.25-.1.34-.18c.09-.08.15-.17.19-.28s.06-.23.06-.36c0-.25-.09-.45-.27-.6s-.45-.22-.81-.22h-1.06v1.7h1.06Z"/>
      <path class="cls-8" d="M137.31,42.1v.54h-3.02v-4.89h3.02v.54h-2.35v1.63h1.91v.52h-1.91v1.67h2.36Z"/>
      <path class="cls-8" d="M143.84,40.19c0,.37-.06.7-.17,1-.12.3-.28.56-.49.77-.21.21-.47.38-.76.5s-.63.18-.99.18h-1.83v-4.89h1.83c.36,0,.69.06.99.18s.55.28.76.5c.21.22.38.47.49.77.12.3.17.63.17,1ZM143.16,40.19c0-.3-.04-.57-.12-.81-.08-.24-.2-.44-.35-.6s-.33-.29-.55-.38c-.21-.09-.45-.13-.72-.13h-1.17v3.82h1.17c.26,0,.5-.04.72-.13.21-.09.4-.21.55-.37s.27-.36.35-.6c.08-.24.12-.5.12-.81Z"/>
      <path class="cls-8" d="M150.68,40.19c0,.37-.06.7-.17,1.01-.12.31-.28.57-.49.79s-.47.39-.76.51c-.3.12-.63.18-.99.18s-.69-.06-.98-.18c-.3-.12-.55-.29-.76-.51-.21-.22-.38-.48-.49-.79-.12-.31-.17-.64-.17-1.01s.06-.7.17-1.01c.12-.31.28-.57.49-.79.21-.22.46-.39.76-.52.3-.12.62-.18.98-.18s.69.06.99.18c.3.12.55.29.76.52.21.22.38.49.49.79.12.31.17.64.17,1.01ZM150,40.19c0-.3-.04-.57-.12-.81-.08-.24-.2-.44-.35-.61-.15-.17-.33-.29-.55-.38s-.45-.13-.72-.13-.5.04-.71.13-.4.22-.55.38-.27.37-.35.61c-.08.24-.12.51-.12.81s.04.57.12.81c.08.24.2.44.35.6s.33.29.55.38c.21.09.45.13.71.13s.5-.04.72-.13c.21-.09.4-.21.55-.38.15-.17.27-.37.35-.6.08-.24.12-.51.12-.81Z"/>
      <path class="cls-8" d="M156.61,42.64h-.59c-.12,0-.21-.05-.27-.14l-1.27-1.75c-.04-.05-.08-.09-.12-.12-.04-.02-.11-.04-.21-.04h-.5v2.04h-.66v-4.89h1.38c.31,0,.58.03.8.09s.41.15.56.27c.15.12.26.26.33.43.07.17.11.35.11.56,0,.17-.03.33-.08.49s-.13.29-.24.4-.23.22-.38.31-.32.15-.51.19c.08.05.16.12.22.21l1.43,1.94ZM154.35,40.11c.19,0,.36-.02.51-.07.15-.05.27-.11.37-.2.1-.08.17-.19.22-.31.05-.12.08-.25.08-.39,0-.29-.1-.51-.29-.66-.19-.15-.48-.22-.86-.22h-.72v1.85h.7Z"/>
      <path class="cls-8" d="M159.3,42.64h-.66v-4.89h.66v4.89Z"/>
      <path class="cls-8" d="M165.89,42.64h-.51c-.06,0-.11-.01-.14-.04-.04-.03-.06-.07-.08-.11l-.46-1.18h-2.2l-.46,1.18s-.04.08-.08.11c-.04.03-.09.05-.14.05h-.51l1.96-4.89h.67l1.96,4.89ZM164.51,40.82l-.77-1.99c-.02-.06-.05-.13-.07-.21-.03-.08-.05-.16-.07-.25-.05.18-.1.34-.15.46l-.77,1.99h1.83Z"/>
      <path class="cls-8" d="M167.72,43.46s-.03-.03-.04-.04,0-.03,0-.05c0-.02,0-.03.01-.05.01-.02.02-.03.04-.04.02-.03.05-.06.09-.1.04-.04.07-.09.11-.15.04-.06.07-.12.1-.18.03-.07.05-.14.07-.21,0,0-.01,0-.02,0h-.02c-.12,0-.21-.04-.29-.12-.07-.08-.11-.18-.11-.3,0-.11.04-.2.11-.27s.17-.11.29-.11c.07,0,.13.01.18.04.05.03.1.06.13.1.04.04.06.1.08.15.02.06.03.12.03.19,0,.1-.01.21-.04.32s-.07.22-.13.33-.12.21-.2.32c-.08.1-.17.2-.27.28l-.1-.1Z"/>
      <path class="cls-8" d="M177.68,42.64h-.51c-.06,0-.11-.01-.14-.04-.04-.03-.06-.07-.08-.11l-.46-1.18h-2.2l-.46,1.18s-.04.08-.08.11c-.04.03-.09.05-.14.05h-.51l1.96-4.89h.67l1.96,4.89ZM176.31,40.82l-.77-1.99c-.02-.06-.05-.13-.07-.21-.03-.08-.05-.16-.07-.25-.05.18-.1.34-.15.46l-.77,1.99h1.83Z"/>
      <path class="cls-8" d="M182.47,42.08v.56h-2.78v-4.89h.66v4.34h2.12Z"/>
      <path class="cls-8" d="M187.78,41.63s.07.01.1.04l.26.28c-.2.23-.44.41-.73.54-.29.13-.63.19-1.04.19-.35,0-.67-.06-.96-.18s-.53-.29-.73-.51c-.2-.22-.36-.48-.47-.79-.11-.31-.17-.65-.17-1.01s.06-.71.17-1.01c.12-.31.28-.57.49-.79.21-.22.46-.39.76-.51s.62-.18.97-.18.66.06.92.17.5.26.7.45l-.22.3s-.03.04-.05.06-.05.02-.09.02c-.04,0-.09-.02-.15-.07-.06-.04-.14-.09-.23-.15s-.21-.1-.36-.15c-.14-.04-.32-.07-.53-.07-.25,0-.48.04-.69.13-.21.09-.39.21-.54.38s-.27.37-.35.61c-.08.24-.13.51-.13.81s.04.58.13.82.21.44.36.61.33.29.54.38.43.13.67.13c.15,0,.28,0,.39-.03.12-.02.23-.04.32-.08.1-.04.19-.08.28-.14.08-.06.17-.12.25-.2.04-.03.08-.05.12-.05Z"/>
      <path class="cls-8" d="M194.25,42.64h-.51c-.06,0-.11-.01-.14-.04-.04-.03-.06-.07-.08-.11l-.46-1.18h-2.2l-.46,1.18s-.04.08-.08.11c-.04.03-.09.05-.14.05h-.51l1.96-4.89h.67l1.96,4.89ZM192.87,40.82l-.77-1.99c-.02-.06-.05-.13-.07-.21-.03-.08-.05-.16-.07-.25-.05.18-.1.34-.15.46l-.77,1.99h1.83Z"/>
      <path class="cls-8" d="M200.22,37.74v4.89h-.33c-.05,0-.1,0-.13-.03s-.07-.05-.1-.09l-2.83-3.69c0,.06,0,.11.01.17s0,.11,0,.15v3.49h-.58v-4.89h.34s.05,0,.08,0c.02,0,.04,0,.05.02.02,0,.03.02.05.03.02.02.03.03.05.06l2.83,3.68c0-.06,0-.12-.01-.17,0-.06,0-.11,0-.16v-3.47h.58Z"/>
      <path class="cls-8" d="M206.28,41.63s.07.01.1.04l.26.28c-.2.23-.44.41-.73.54-.29.13-.63.19-1.04.19-.35,0-.67-.06-.96-.18s-.53-.29-.73-.51c-.2-.22-.36-.48-.47-.79-.11-.31-.17-.65-.17-1.01s.06-.71.17-1.01c.12-.31.28-.57.49-.79.21-.22.46-.39.76-.51s.62-.18.97-.18.66.06.92.17.5.26.7.45l-.22.3s-.03.04-.05.06-.05.02-.09.02c-.04,0-.09-.02-.15-.07-.06-.04-.14-.09-.23-.15s-.21-.1-.36-.15c-.14-.04-.32-.07-.53-.07-.25,0-.48.04-.69.13-.21.09-.39.21-.54.38s-.27.37-.35.61c-.08.24-.13.51-.13.81s.04.58.13.82.21.44.36.61.33.29.54.38.43.13.67.13c.15,0,.28,0,.39-.03.12-.02.23-.04.32-.08.1-.04.19-.08.28-.14.08-.06.17-.12.25-.2.04-.03.08-.05.12-.05Z"/>
      <path class="cls-8" d="M211.79,42.1v.54h-3.02v-4.89h3.02v.54h-2.35v1.63h1.91v.52h-1.91v1.67h2.36Z"/>
      <path class="cls-8" d="M221.72,40.19c0,.37-.06.7-.17,1.01-.12.31-.28.57-.49.79s-.47.39-.76.51c-.3.12-.63.18-.99.18s-.69-.06-.98-.18c-.3-.12-.55-.29-.76-.51-.21-.22-.38-.48-.49-.79-.12-.31-.17-.64-.17-1.01s.06-.7.17-1.01c.12-.31.28-.57.49-.79.21-.22.46-.39.76-.52.3-.12.62-.18.98-.18s.69.06.99.18c.3.12.55.29.76.52.21.22.38.49.49.79.12.31.17.64.17,1.01ZM221.04,40.19c0-.3-.04-.57-.12-.81-.08-.24-.2-.44-.35-.61-.15-.17-.33-.29-.55-.38s-.45-.13-.72-.13-.5.04-.71.13-.4.22-.55.38-.27.37-.35.61c-.08.24-.12.51-.12.81s.04.57.12.81c.08.24.2.44.35.6s.33.29.55.38c.21.09.45.13.71.13s.5-.04.72-.13c.21-.09.4-.21.55-.38.15-.17.27-.37.35-.6.08-.24.12-.51.12-.81Z"/>
      <path class="cls-8" d="M226.53,38.51s-.04.06-.07.08c-.02.02-.05.03-.09.03-.04,0-.08-.02-.14-.06-.05-.04-.12-.08-.2-.13-.08-.05-.17-.09-.28-.13-.11-.04-.24-.06-.4-.06-.15,0-.28.02-.39.06-.11.04-.21.09-.28.16s-.13.15-.17.24c-.04.09-.06.19-.06.3,0,.14.03.25.1.34s.16.17.27.23c.11.06.24.12.38.17.14.05.28.1.43.15.15.05.29.11.43.17s.27.14.38.24.2.21.27.35c.07.14.1.31.1.51,0,.21-.04.42-.11.6-.07.19-.18.35-.32.49-.14.14-.31.25-.52.33-.2.08-.44.12-.7.12-.32,0-.61-.06-.87-.17-.26-.11-.48-.27-.67-.47l.19-.31s.04-.05.07-.06c.03-.02.05-.03.09-.03.03,0,.06.01.1.04.04.02.08.05.13.09.05.04.1.08.16.12s.13.08.21.12c.08.04.17.07.27.09.1.02.21.04.34.04.16,0,.3-.02.42-.07.12-.04.23-.1.31-.18.09-.08.15-.17.2-.28s.07-.23.07-.37c0-.15-.03-.27-.1-.36-.07-.09-.16-.17-.26-.24-.11-.06-.23-.12-.38-.16-.14-.04-.28-.09-.43-.14-.15-.05-.29-.1-.43-.16s-.27-.14-.38-.24c-.11-.1-.2-.22-.26-.37-.07-.15-.1-.33-.1-.54,0-.17.03-.34.1-.5.07-.16.17-.31.29-.43s.29-.23.47-.3.4-.11.65-.11c.27,0,.52.04.75.13.22.09.42.21.59.38l-.16.31Z"/>
      <path class="cls-8" d="M234.72,38.51s-.04.06-.07.08c-.02.02-.05.03-.09.03-.04,0-.08-.02-.14-.06-.05-.04-.12-.08-.2-.13-.08-.05-.17-.09-.28-.13-.11-.04-.24-.06-.4-.06-.15,0-.28.02-.39.06-.11.04-.21.09-.28.16s-.13.15-.17.24c-.04.09-.06.19-.06.3,0,.14.03.25.1.34s.16.17.27.23c.11.06.24.12.38.17.14.05.28.1.43.15.15.05.29.11.43.17s.27.14.38.24.2.21.27.35c.07.14.1.31.1.51,0,.21-.04.42-.11.6-.07.19-.18.35-.32.49-.14.14-.31.25-.52.33-.2.08-.44.12-.7.12-.32,0-.61-.06-.87-.17-.26-.11-.48-.27-.67-.47l.19-.31s.04-.05.07-.06c.03-.02.05-.03.09-.03.03,0,.06.01.1.04.04.02.08.05.13.09.05.04.1.08.16.12s.13.08.21.12c.08.04.17.07.27.09.1.02.21.04.34.04.16,0,.3-.02.42-.07.12-.04.23-.1.31-.18.09-.08.15-.17.2-.28s.07-.23.07-.37c0-.15-.03-.27-.1-.36-.07-.09-.16-.17-.26-.24-.11-.06-.23-.12-.38-.16-.14-.04-.28-.09-.43-.14-.15-.05-.29-.1-.43-.16s-.27-.14-.38-.24c-.11-.1-.2-.22-.26-.37-.07-.15-.1-.33-.1-.54,0-.17.03-.34.1-.5.07-.16.17-.31.29-.43s.29-.23.47-.3.4-.11.65-.11c.27,0,.52.04.75.13.22.09.42.21.59.38l-.16.31Z"/>
      <path class="cls-8" d="M240.3,42.1v.54h-3.02v-4.89h3.02v.54h-2.35v1.63h1.91v.52h-1.91v1.67h2.36Z"/>
      <path class="cls-8" d="M244.48,42.11c.2,0,.38-.03.54-.1.16-.07.29-.16.4-.29s.2-.27.25-.44.09-.36.09-.56v-2.97h.66v2.97c0,.28-.04.54-.13.79s-.22.45-.39.63c-.17.18-.37.31-.61.42-.24.1-.51.15-.81.15s-.57-.05-.81-.15c-.24-.1-.45-.24-.62-.42-.17-.18-.3-.39-.39-.63s-.13-.5-.13-.79v-2.97h.66v2.97c0,.21.03.39.09.56.06.17.14.32.25.44s.25.22.41.29.34.1.54.1Z"/>
      <path class="cls-8" d="M251.49,38.51s-.04.06-.07.08c-.02.02-.05.03-.09.03-.04,0-.08-.02-.14-.06-.05-.04-.12-.08-.2-.13-.08-.05-.17-.09-.28-.13-.11-.04-.24-.06-.4-.06-.15,0-.28.02-.39.06-.11.04-.21.09-.28.16s-.13.15-.17.24c-.04.09-.06.19-.06.3,0,.14.03.25.1.34s.16.17.27.23c.11.06.24.12.38.17.14.05.28.1.43.15.15.05.29.11.43.17s.27.14.38.24.2.21.27.35c.07.14.1.31.1.51,0,.21-.04.42-.11.6-.07.19-.18.35-.32.49-.14.14-.31.25-.52.33-.2.08-.44.12-.7.12-.32,0-.61-.06-.87-.17-.26-.11-.48-.27-.67-.47l.19-.31s.04-.05.07-.06c.03-.02.05-.03.09-.03.03,0,.06.01.1.04.04.02.08.05.13.09.05.04.1.08.16.12s.13.08.21.12c.08.04.17.07.27.09.1.02.21.04.34.04.16,0,.3-.02.42-.07.12-.04.23-.1.31-.18.09-.08.15-.17.2-.28s.07-.23.07-.37c0-.15-.03-.27-.1-.36-.07-.09-.16-.17-.26-.24-.11-.06-.23-.12-.38-.16-.14-.04-.28-.09-.43-.14-.15-.05-.29-.1-.43-.16s-.27-.14-.38-.24c-.11-.1-.2-.22-.26-.37-.07-.15-.1-.33-.1-.54,0-.17.03-.34.1-.5.07-.16.17-.31.29-.43s.29-.23.47-.3.4-.11.65-.11c.27,0,.52.04.75.13.22.09.42.21.59.38l-.16.31Z"/>
      <path class="cls-8" d="M261.69,40.19c0,.37-.06.7-.17,1.01-.12.31-.28.57-.49.79s-.47.39-.76.51c-.3.12-.63.18-.99.18s-.69-.06-.98-.18c-.3-.12-.55-.29-.76-.51-.21-.22-.38-.48-.49-.79-.12-.31-.17-.64-.17-1.01s.06-.7.17-1.01c.12-.31.28-.57.49-.79.21-.22.46-.39.76-.52.3-.12.62-.18.98-.18s.69.06.99.18c.3.12.55.29.76.52.21.22.38.49.49.79.12.31.17.64.17,1.01ZM261.01,40.19c0-.3-.04-.57-.12-.81-.08-.24-.2-.44-.35-.61-.15-.17-.33-.29-.55-.38s-.45-.13-.72-.13-.5.04-.71.13-.4.22-.55.38-.27.37-.35.61c-.08.24-.12.51-.12.81s.04.57.12.81c.08.24.2.44.35.6s.33.29.55.38c.21.09.45.13.71.13s.5-.04.72-.13c.21-.09.4-.21.55-.38.15-.17.27-.37.35-.6.08-.24.12-.51.12-.81Z"/>
      <path class="cls-8" d="M265.56,37.74c.3,0,.56.03.78.09.22.06.4.14.54.25.14.11.24.24.31.4.07.16.1.34.1.54,0,.12-.02.24-.06.35-.04.11-.09.21-.17.31s-.17.18-.29.26-.25.14-.41.19c.36.07.63.2.81.38s.27.43.27.74c0,.21-.04.4-.11.57s-.19.32-.33.44-.33.22-.54.29-.46.1-.73.1h-1.73v-4.89h1.56ZM264.66,38.27v1.67h.87c.19,0,.35-.02.49-.06s.25-.1.34-.17.16-.16.2-.26c.04-.1.06-.22.06-.34,0-.29-.09-.5-.26-.63-.17-.13-.44-.2-.81-.2h-.9ZM265.72,42.11c.19,0,.35-.02.49-.06s.25-.1.34-.18c.09-.08.15-.17.19-.28s.06-.23.06-.36c0-.25-.09-.45-.27-.6s-.45-.22-.81-.22h-1.06v1.7h1.06Z"/>
      <path class="cls-8" d="M271.42,40.95c0,.27-.03.52-.1.73-.07.22-.17.4-.3.55s-.29.26-.48.34c-.19.08-.41.12-.66.12-.22,0-.46-.03-.69-.1,0-.07,0-.13.02-.2s.01-.13.02-.19c0-.04.02-.07.04-.09s.06-.04.11-.04c.04,0,.1.01.16.03.07.02.16.03.27.03.15,0,.29-.02.4-.07.12-.04.22-.12.3-.21.08-.1.14-.22.18-.37.04-.15.06-.33.06-.53v-3.22h.66v3.2Z"/>
      <path class="cls-8" d="M277,42.1v.54h-3.02v-4.89h3.02v.54h-2.35v1.63h1.91v.52h-1.91v1.67h2.36Z"/>
      <path class="cls-8" d="M282.6,38.3h-1.58v4.34h-.66v-4.34h-1.59v-.56h3.83v.56Z"/>
      <path class="cls-8" d="M285.35,42.64h-.66v-4.89h.66v4.89Z"/>
      <path class="cls-8" d="M291.95,37.74l-1.99,4.89h-.59l-1.99-4.89h.53c.06,0,.11.01.14.04.04.03.06.07.08.11l1.38,3.45c.03.08.06.16.09.25s.05.19.08.29c.02-.1.05-.2.07-.29s.05-.18.08-.25l1.38-3.45s.04-.08.08-.11c.04-.03.09-.05.15-.05h.53Z"/>
      <path class="cls-8" d="M298.35,40.19c0,.37-.06.7-.17,1.01-.12.31-.28.57-.49.79s-.47.39-.76.51c-.3.12-.63.18-.99.18s-.69-.06-.98-.18c-.3-.12-.55-.29-.76-.51-.21-.22-.38-.48-.49-.79-.12-.31-.17-.64-.17-1.01s.06-.7.17-1.01c.12-.31.28-.57.49-.79.21-.22.46-.39.76-.52.3-.12.62-.18.98-.18s.69.06.99.18c.3.12.55.29.76.52.21.22.38.49.49.79.12.31.17.64.17,1.01ZM297.67,40.19c0-.3-.04-.57-.12-.81-.08-.24-.2-.44-.35-.61-.15-.17-.33-.29-.55-.38s-.45-.13-.72-.13-.5.04-.71.13-.4.22-.55.38-.27.37-.35.61c-.08.24-.12.51-.12.81s.04.57.12.81c.08.24.2.44.35.6s.33.29.55.38c.21.09.45.13.71.13s.5-.04.72-.13c.21-.09.4-.21.55-.38.15-.17.27-.37.35-.6.08-.24.12-.51.12-.81Z"/>
      <path class="cls-8" d="M303.16,38.51s-.04.06-.07.08c-.02.02-.05.03-.09.03-.04,0-.08-.02-.14-.06-.05-.04-.12-.08-.2-.13-.08-.05-.17-.09-.28-.13-.11-.04-.24-.06-.4-.06-.15,0-.28.02-.39.06-.11.04-.21.09-.28.16s-.13.15-.17.24c-.04.09-.06.19-.06.3,0,.14.03.25.1.34s.16.17.27.23c.11.06.24.12.38.17.14.05.28.1.43.15.15.05.29.11.43.17s.27.14.38.24.2.21.27.35c.07.14.1.31.1.51,0,.21-.04.42-.11.6-.07.19-.18.35-.32.49-.14.14-.31.25-.52.33-.2.08-.44.12-.7.12-.32,0-.61-.06-.87-.17-.26-.11-.48-.27-.67-.47l.19-.31s.04-.05.07-.06c.03-.02.05-.03.09-.03.03,0,.06.01.1.04.04.02.08.05.13.09.05.04.1.08.16.12s.13.08.21.12c.08.04.17.07.27.09.1.02.21.04.34.04.16,0,.3-.02.42-.07.12-.04.23-.1.31-.18.09-.08.15-.17.2-.28s.07-.23.07-.37c0-.15-.03-.27-.1-.36-.07-.09-.16-.17-.26-.24-.11-.06-.23-.12-.38-.16-.14-.04-.28-.09-.43-.14-.15-.05-.29-.1-.43-.16s-.27-.14-.38-.24c-.11-.1-.2-.22-.26-.37-.07-.15-.1-.33-.1-.54,0-.17.03-.34.1-.5.07-.16.17-.31.29-.43s.29-.23.47-.3.4-.11.65-.11c.27,0,.52.04.75.13.22.09.42.21.59.38l-.16.31Z"/>
    </g>
  </g>
</svg>