<?xml version="1.0" encoding="utf-8"?>
<!-- Generator: Adobe Illustrator 28.1.0, SVG Export Plug-In . SVG Version: 6.00 Build 0)  -->
<svg version="1.1" id="Layer_1" xmlns="http://www.w3.org/2000/svg" xmlns:xlink="http://www.w3.org/1999/xlink" x="0px" y="0px"
	 viewBox="0 0 303.7 55.5" style="enable-background:new 0 0 303.7 55.5;" xml:space="preserve">
<style type="text/css">
	.st0{fill:url(#SVGID_1_);}
	.st1{fill:url(#SVGID_00000157298403012509176680000017602084243935495355_);}
	.st2{fill:url(#SVGID_00000169536311030531783890000010569196659657405333_);}
	.st3{fill:url(#SVGID_00000067933735410464405320000004919212785091029168_);}
	.st4{fill:url(#SVGID_00000088094693754068071180000001812417589827652999_);}
	.st5{fill:url(#SVGID_00000150072409991672364780000003169829691549551745_);}
	.st6{fill:url(#SVGID_00000026128173348425841880000014882898488872697487_);}
	.st7{fill:#00957F;}
	.st8{fill:#E25454;}
</style>
<g>
	
		<linearGradient id="SVGID_1_" gradientUnits="userSpaceOnUse" x1="13.885" y1="10.09" x2="13.885" y2="24.65" gradientTransform="matrix(1 0 0 -1 0 58)">
		<stop  offset="0" style="stop-color:#F0522B"/>
		<stop  offset="1" style="stop-color:#F05269"/>
	</linearGradient>
	<polygon class="st0" points="11.4,32.4 10.2,33.5 10.2,43.9 17.5,43.9 17.5,38.5 	"/>
	
		<linearGradient id="SVGID_00000132062476946573631300000013808906063702229946_" gradientUnits="userSpaceOnUse" x1="24.745" y1="6.48" x2="24.745" y2="23.83" gradientTransform="matrix(1 0 0 -1 0 58)">
		<stop  offset="0" style="stop-color:#F0522B"/>
		<stop  offset="1" style="stop-color:#F05269"/>
	</linearGradient>
	<polygon style="fill:url(#SVGID_00000132062476946573631300000013808906063702229946_);" points="21.1,40.3 21.1,46.7 28.4,46.7 
		28.4,33 	"/>
	
		<linearGradient id="SVGID_00000108294109348401825520000017845714516939483787_" gradientUnits="userSpaceOnUse" x1="35.605" y1="7.31" x2="35.605" y2="31.17" gradientTransform="matrix(1 0 0 -1 0 58)">
		<stop  offset="0" style="stop-color:#F0522B"/>
		<stop  offset="1" style="stop-color:#F05269"/>
	</linearGradient>
	<polygon style="fill:url(#SVGID_00000108294109348401825520000017845714516939483787_);" points="36.2,25.3 32,29.5 32,44.1 
		39.2,44.1 39.2,28.4 	"/>
	
		<linearGradient id="SVGID_00000126293472796909181650000009155870416091854751_" gradientUnits="userSpaceOnUse" x1="-8.54" y1="31.88" x2="27.37" y2="31.88" gradientTransform="matrix(1 0 0 -1 0 58)">
		<stop  offset="0" style="stop-color:#FFFFFF"/>
		<stop  offset="0.1" style="stop-color:#F5F6F7"/>
		<stop  offset="0.26" style="stop-color:#DADEE1"/>
		<stop  offset="0.46" style="stop-color:#AFB8BE"/>
		<stop  offset="0.71" style="stop-color:#74838E"/>
		<stop  offset="0.88" style="stop-color:#475B69"/>
	</linearGradient>
	<polygon style="fill:url(#SVGID_00000126293472796909181650000009155870416091854751_);" points="5.2,33.9 2.2,31 11.4,21.9 
		20.2,30.7 35.2,15.7 38.1,18.6 20.2,36.5 11.4,27.7 	"/>
	
		<linearGradient id="SVGID_00000014604537930690043400000013123267629749204159_" gradientUnits="userSpaceOnUse" x1="27.7333" y1="58.001" x2="27.7333" y2="2.5525" gradientTransform="matrix(1 0 0 -1 0 58)">
		<stop  offset="0" style="stop-color:#00AE8E"/>
		<stop  offset="1" style="stop-color:#4C6168"/>
		<stop  offset="1" style="stop-color:#2E383F"/>
	</linearGradient>
	<path style="fill:url(#SVGID_00000014604537930690043400000013123267629749204159_);" d="M45.5,37.6c2.4-3.9,3.8-8.5,3.7-13.4
		C49,10.9,38.1,0.1,24.8,0C11.1-0.1-0.1,11.1,0,24.8C0.1,38.1,11,49,24.3,49.2c4.9,0.1,9.5-1.3,13.4-3.7l8.4,8.4
		c2.2,2.2,5.7,2.2,7.9,0l0,0c2.2-2.2,2.2-5.7,0-7.9C53.8,46,45.5,37.6,45.5,37.6z M25,44.5c-11.3,0.2-20.5-9-20.3-20.3
		C4.9,13.6,13.6,4.9,24.2,4.7c11.3-0.2,20.5,9,20.3,20.3C44.3,35.6,35.6,44.3,25,44.5z"/>
	
		<linearGradient id="SVGID_00000008121231391508543400000010244821941409957053_" gradientUnits="userSpaceOnUse" x1="43.73" y1="40.645" x2="29.2" y2="40.645" gradientTransform="matrix(1 0 0 -1 0 58)">
		<stop  offset="0" style="stop-color:#475B69"/>
		<stop  offset="0.12" style="stop-color:#4C5F6D"/>
		<stop  offset="0.27" style="stop-color:#5C6D79"/>
		<stop  offset="0.44" style="stop-color:#76848D"/>
		<stop  offset="0.63" style="stop-color:#9BA3AA"/>
		<stop  offset="0.82" style="stop-color:#CACBCE"/>
		<stop  offset="0.83" style="stop-color:#CECFD1"/>
	</linearGradient>
	<polygon style="fill:url(#SVGID_00000008121231391508543400000010244821941409957053_);" points="29.2,13.6 40.2,24.6 43.7,10.1 	
		"/>
	
		<linearGradient id="SVGID_00000015342007395632642090000009721295587222160804_" gradientUnits="userSpaceOnUse" x1="47.1644" y1="24.6977" x2="40.5544" y2="12.3077" gradientTransform="matrix(1 0 0 -1 0 58)">
		<stop  offset="0" style="stop-color:#008F77"/>
		<stop  offset="1" style="stop-color:#005958"/>
	</linearGradient>
	<path style="fill:url(#SVGID_00000015342007395632642090000009721295587222160804_);" d="M45.5,37.7c-2,3.1-4.6,5.8-7.8,7.8
		c0,0,0,0,0,0c1.1,1.1,2.2,2.2,3.3,3.3c2.7-2.8,4.7-6.2,5.8-9.9L45.5,37.7C45.5,37.6,45.5,37.6,45.5,37.7L45.5,37.7z"/>
</g>
<g>
	<g>
		<path class="st7" d="M72.7,13.7l-1.4,2.8c0,0-1.5-1.1-3.1-1.1c-1.2,0-1.8,0.5-1.8,1.4s1.4,1.5,3.2,2.2c1.7,0.7,3.6,2.1,3.6,4.1
			c0,3.6-2.8,4.9-5.7,4.9c-3.5,0-5.7-2-5.7-2l1.7-2.9c0,0,2,1.7,3.7,1.7c0.8,0,2.2-0.1,2.2-1.5c0-1.1-1.6-1.6-3.4-2.5
			c-1.8-0.9-2.9-2.3-2.9-3.9c0-2.8,2.5-4.6,4.9-4.6C70.7,12.3,72.7,13.7,72.7,13.7L72.7,13.7z"/>
		<path class="st7" d="M88.4,18.8L88.4,18.8l-3.2,8.9h-2.1L80,18.8h-0.1l-0.7,9h-3.5l1.4-15.2h3.7l3.4,8.8l3.4-8.8h3.7l1.4,15.2
			h-3.5L88.4,18.8L88.4,18.8z"/>
		<path class="st7" d="M109.7,27.8h-3.7l-1.1-3H99l-1.1,3h-3.7l6.1-15.2h3.2L109.7,27.8L109.7,27.8z M101.9,17.3L101.9,17.3
			l-1.7,4.4h3.4C103.6,21.7,101.9,17.3,101.9,17.3z"/>
		<path class="st7" d="M117.5,12.6c2.8,0,4.9,1.5,4.9,4.5c0,2.3-1.2,3.8-3.1,4.4l5.2,6.3h-4.4l-4.6-6v6h-3.5V12.6L117.5,12.6
			L117.5,12.6z M115.9,19.3c1.3,0,2.9-0.1,2.9-2s-1.6-2-2.9-2h-0.4v4L115.9,19.3L115.9,19.3z"/>
		<path class="st7" d="M125.4,12.6h10.7v3h-3.6v12.2H129V15.6h-3.6L125.4,12.6L125.4,12.6z"/>
		<path class="st7" d="M156,13.7l-1.4,2.8c0,0-1.5-1.1-3.1-1.1c-1.2,0-1.8,0.5-1.8,1.4s1.4,1.5,3.2,2.2c1.7,0.7,3.6,2.1,3.6,4.1
			c0,3.6-2.8,4.9-5.7,4.9c-3.6,0-5.7-2-5.7-2l1.7-2.9c0,0,2,1.7,3.7,1.7c0.8,0,2.2-0.1,2.2-1.5c0-1.1-1.6-1.6-3.4-2.5
			c-1.8-0.9-2.9-2.3-2.9-3.9c0-2.8,2.5-4.6,4.9-4.6C154,12.3,156,13.7,156,13.7L156,13.7z"/>
		<path class="st7" d="M173.7,27.8H170l-1.1-3h-5.8l-1.1,3h-3.7l6.1-15.2h3.2L173.7,27.8L173.7,27.8z M166,17.3L166,17.3l-1.7,4.4
			h3.4L166,17.3z"/>
		<path class="st7" d="M172.9,12.6h3.9l3.8,10l3.8-10h3.9L182,27.8h-2.7C179.3,27.8,172.9,12.6,172.9,12.6z"/>
		<path class="st7" d="M194.3,27.8h-3.5V12.6h3.5V27.8z"/>
		<path class="st7" d="M201.8,27.8h-3.5V12.6h3.5l6,9.4h0v-9.4h3.5v15.2h-3.5l-6-9.4h0V27.8z"/>
		<path class="st7" d="M229.1,22.6c-0.8,3.9-4,5.5-7,5.5c-4.1,0-7.4-3.5-7.4-7.9s3.1-7.9,7.4-7.9c2.7,0,4.5,1,5.9,2.6l-2.3,2.5
			c-0.9-1.4-2-1.9-3.4-1.9c-2.1,0-3.9,2.1-3.9,4.7s1.7,4.7,3.9,4.7c1.7,0,3.3-1.1,3.3-2.9h-3.5v-2.7h7L229.1,22.6L229.1,22.6z"/>
		<path class="st7" d="M242.4,13.7l-1.4,2.8c0,0-1.5-1.1-3.1-1.1c-1.2,0-1.8,0.5-1.8,1.4s1.4,1.5,3.2,2.2c1.7,0.7,3.6,2.1,3.6,4.1
			c0,3.6-2.8,4.9-5.7,4.9c-3.6,0-5.7-2-5.7-2l1.7-2.9c0,0,2,1.7,3.7,1.7c0.8,0,2.2-0.1,2.2-1.5c0-1.1-1.6-1.6-3.4-2.5
			c-1.8-0.9-2.9-2.3-2.9-3.9c0-2.8,2.5-4.6,4.9-4.6C240.5,12.3,242.4,13.7,242.4,13.7L242.4,13.7z"/>
	</g>
	<g>
		<path class="st8" d="M63.3,40c0.3,0.2,0.9,0.4,1.4,0.4c0.8,0,1.3-0.4,1.3-1c0-0.6-0.3-0.9-1.1-1.2c-1-0.3-1.6-0.9-1.6-1.7
			c0-0.9,0.8-1.6,1.9-1.6c0.6,0,1.1,0.1,1.3,0.3l-0.2,0.6c-0.2-0.1-0.6-0.3-1.1-0.3c-0.8,0-1.1,0.5-1.1,0.9c0,0.6,0.4,0.8,1.2,1.2
			c1,0.4,1.5,0.9,1.5,1.8c0,0.9-0.7,1.7-2.1,1.7c-0.6,0-1.2-0.2-1.5-0.4L63.3,40z"/>
		<path class="st8" d="M68.8,39.1L68.1,41h-0.8l2-6h0.9l2,6h-0.8l-0.6-1.9H68.8z M70.7,38.5l-0.6-1.7c-0.1-0.4-0.2-0.7-0.3-1.1h0
			c-0.1,0.4-0.2,0.7-0.3,1.1l-0.6,1.7H70.7z"/>
		<path class="st8" d="M74.1,41l-2-6h0.8l0.9,2.9c0.3,0.8,0.5,1.5,0.6,2.2h0c0.2-0.7,0.4-1.4,0.7-2.2l1-3h0.8l-2.1,6H74.1z"/>
		<path class="st8" d="M80.8,38.2h-2.3v2.2h2.6V41h-3.4v-6h3.2v0.6h-2.5v1.9h2.3V38.2z"/>
		<path class="st8" d="M84.6,41l-1.5-6h0.8l0.7,3c0.2,0.7,0.3,1.5,0.4,2.1h0c0.1-0.6,0.3-1.3,0.5-2.1l0.8-3h0.8l0.7,3
			c0.2,0.7,0.3,1.4,0.4,2.1h0c0.1-0.7,0.3-1.3,0.5-2.1l0.8-3h0.8l-1.7,6h-0.8l-0.8-3.1c-0.2-0.8-0.3-1.3-0.4-2h0
			c-0.1,0.6-0.2,1.2-0.5,2L85.4,41H84.6z"/>
		<path class="st8" d="M91.9,35v6h-0.8v-6H91.9z"/>
		<path class="st8" d="M93.2,40c0.3,0.2,0.9,0.4,1.4,0.4c0.8,0,1.3-0.4,1.3-1c0-0.6-0.3-0.9-1.1-1.2c-1-0.3-1.6-0.9-1.6-1.7
			c0-0.9,0.8-1.6,1.9-1.6c0.6,0,1.1,0.1,1.3,0.3l-0.2,0.6c-0.2-0.1-0.6-0.3-1.1-0.3c-0.8,0-1.1,0.5-1.1,0.9c0,0.6,0.4,0.8,1.2,1.2
			c1,0.4,1.5,0.9,1.5,1.8c0,0.9-0.7,1.7-2.1,1.7c-0.6,0-1.2-0.2-1.5-0.4L93.2,40z"/>
		<path class="st8" d="M100.7,38.2h-2.3v2.2h2.6V41h-3.4v-6h3.2v0.6h-2.5v1.9h2.3V38.2z"/>
		<path class="st8" d="M102,35h0.8v5.3h2.6V41H102V35z"/>
		<path class="st8" d="M106.8,41v-2.5l-1.9-3.4h0.9l0.8,1.7c0.2,0.5,0.4,0.8,0.6,1.2h0c0.2-0.4,0.4-0.8,0.6-1.2l0.9-1.7h0.9l-2,3.4
			V41H106.8z"/>
		<path class="st8" d="M108.9,42.1c0.2-0.5,0.4-1.5,0.5-2.1l0.9-0.1c-0.2,0.8-0.6,1.7-0.8,2.2L108.9,42.1z"/>
		<path class="st8" d="M114.1,39.1l-0.6,1.9h-0.8l2-6h0.9l2,6h-0.8l-0.6-1.9H114.1z M116.1,38.5l-0.6-1.7c-0.1-0.4-0.2-0.7-0.3-1.1
			h0c-0.1,0.4-0.2,0.7-0.3,1.1l-0.6,1.7H116.1z"/>
		<path class="st8" d="M122.6,40.8c-0.3,0.1-0.9,0.3-1.6,0.3c-1.7,0-3-1.1-3-3c0-1.9,1.3-3.1,3.1-3.1c0.7,0,1.2,0.2,1.4,0.3
			l-0.2,0.6c-0.3-0.1-0.7-0.2-1.2-0.2c-1.4,0-2.3,0.9-2.3,2.5c0,1.5,0.8,2.4,2.3,2.4c0.5,0,0.9-0.1,1.3-0.2L122.6,40.8z"/>
		<path class="st8" d="M124.3,35v2.5h2.9V35h0.8v6h-0.8v-2.8h-2.9V41h-0.8v-6H124.3z"/>
		<path class="st8" d="M130.1,35v6h-0.8v-6H130.1z"/>
		<path class="st8" d="M134.6,38.2h-2.3v2.2h2.6V41h-3.4v-6h3.2v0.6h-2.5v1.9h2.3V38.2z"/>
		<path class="st8" d="M137.2,41l-2-6h0.8l0.9,2.9c0.3,0.8,0.5,1.5,0.6,2.2h0c0.2-0.7,0.4-1.4,0.7-2.2l1-3h0.8l-2.1,6H137.2z"/>
		<path class="st8" d="M144,38.2h-2.3v2.2h2.6V41h-3.4v-6h3.2v0.6h-2.5v1.9h2.3V38.2z"/>
		<path class="st8" d="M148.1,41v-2.5l-1.9-3.4h0.9l0.8,1.7c0.2,0.5,0.4,0.8,0.6,1.2h0c0.2-0.4,0.4-0.8,0.6-1.2L150,35h0.9l-2,3.4
			V41H148.1z"/>
		<path class="st8" d="M156.3,37.9c0,2.1-1.3,3.2-2.8,3.2c-1.6,0-2.7-1.2-2.7-3c0-1.9,1.2-3.1,2.8-3.1
			C155.3,34.9,156.3,36.1,156.3,37.9z M151.7,38c0,1.3,0.7,2.4,1.9,2.4c1.2,0,1.9-1.1,1.9-2.5c0-1.2-0.6-2.4-1.9-2.4
			C152.3,35.5,151.7,36.7,151.7,38z"/>
		<path class="st8" d="M158.1,35v3.5c0,1.3,0.6,1.9,1.4,1.9c0.9,0,1.5-0.6,1.5-1.9V35h0.8v3.5c0,1.8-1,2.6-2.3,2.6
			c-1.2,0-2.1-0.7-2.1-2.6V35H158.1z"/>
		<path class="st8" d="M163.1,35.1c0.4-0.1,1-0.1,1.5-0.1c0.8,0,1.4,0.2,1.7,0.5c0.3,0.3,0.5,0.7,0.5,1.1c0,0.8-0.5,1.3-1.1,1.5v0
			c0.5,0.2,0.7,0.6,0.9,1.2c0.2,0.8,0.3,1.4,0.5,1.6h-0.8c-0.1-0.2-0.2-0.7-0.4-1.4c-0.2-0.8-0.5-1.1-1.2-1.2h-0.7V41h-0.8V35.1z
			 M163.8,37.8h0.8c0.8,0,1.3-0.5,1.3-1.1c0-0.8-0.6-1.1-1.4-1.1c-0.4,0-0.6,0-0.8,0.1V37.8z"/>
		<path class="st8" d="M174.3,40.7c-0.3,0.1-1,0.3-1.8,0.3c-0.9,0-1.7-0.2-2.2-0.8c-0.5-0.5-0.8-1.3-0.8-2.2c0-1.8,1.2-3.1,3.2-3.1
			c0.7,0,1.2,0.2,1.5,0.3l-0.2,0.6c-0.3-0.1-0.7-0.3-1.3-0.3c-1.5,0-2.4,0.9-2.4,2.4c0,1.5,0.9,2.4,2.3,2.4c0.5,0,0.9-0.1,1-0.2
			v-1.8h-1.2v-0.6h2V40.7z"/>
		<path class="st8" d="M180.6,37.9c0,2.1-1.3,3.2-2.8,3.2c-1.6,0-2.7-1.2-2.7-3c0-1.9,1.2-3.1,2.8-3.1
			C179.5,34.9,180.6,36.1,180.6,37.9z M175.9,38c0,1.3,0.7,2.4,1.9,2.4c1.2,0,1.9-1.1,1.9-2.5c0-1.2-0.6-2.4-1.9-2.4
			C176.6,35.5,175.9,36.7,175.9,38z"/>
		<path class="st8" d="M182.4,39.1l-0.6,1.9H181l2-6h0.9l2,6h-0.8l-0.6-1.9H182.4z M184.4,38.5l-0.6-1.7c-0.1-0.4-0.2-0.7-0.3-1.1h0
			c-0.1,0.4-0.2,0.7-0.3,1.1l-0.6,1.7H184.4z"/>
		<path class="st8" d="M186.9,35h0.8v5.3h2.6V41h-3.3V35z"/>
		<path class="st8" d="M191,40c0.3,0.2,0.9,0.4,1.4,0.4c0.8,0,1.3-0.4,1.3-1c0-0.6-0.3-0.9-1.1-1.2c-1-0.3-1.6-0.9-1.6-1.7
			c0-0.9,0.8-1.6,1.9-1.6c0.6,0,1.1,0.1,1.3,0.3l-0.2,0.6c-0.2-0.1-0.6-0.3-1.1-0.3c-0.8,0-1.1,0.5-1.1,0.9c0,0.6,0.4,0.8,1.2,1.2
			c1,0.4,1.5,0.9,1.5,1.8c0,0.9-0.7,1.7-2.1,1.7c-0.6,0-1.2-0.2-1.5-0.4L191,40z"/>
	</g>
</g>
</svg>
